<?xml version="1.0" encoding="utf-8"?>
<!-- Generator: Adobe Illustrator 15.0.0, SVG Export Plug-In . SVG Version: 6.00 Build 0)  -->
<!DOCTYPE svg PUBLIC "-//W3C//DTD SVG 1.1//EN" "http://www.w3.org/Graphics/SVG/1.1/DTD/svg11.dtd">
<svg version="1.1" id="Layer_1" xmlns="http://www.w3.org/2000/svg" xmlns:xlink="http://www.w3.org/1999/xlink" x="0px" y="0px"
	 width="512px" height="512px" viewBox="0 0 512 512" enable-background="new 0 0 512 512" xml:space="preserve">
<g>
	<path fill="#FFFFFF" d="M256,512C114.84,512,0,397.16,0,256S114.84,0,256,0s256,114.84,256,256S397.16,512,256,512z M256,36.57
		C135.008,36.57,36.57,135.008,36.57,256S135.008,475.43,256,475.43S475.43,376.992,475.43,256S376.992,36.57,256,36.57z"/>
	<path fill="#FFFFFF" d="M347.43,365.715c-4.68,0-9.359-1.785-12.93-5.359L151.645,177.5c-7.145-7.145-7.145-18.715,0-25.855
		c7.141-7.141,18.715-7.145,25.855,0L360.355,334.5c7.145,7.145,7.145,18.715,0,25.855
		C356.785,363.93,352.109,365.715,347.43,365.715z"/>
	<path fill="#FFFFFF" d="M164.57,365.715c-4.68,0-9.355-1.785-12.926-5.359c-7.145-7.141-7.145-18.715,0-25.855L334.5,151.645
		c7.145-7.145,18.715-7.145,25.855,0c7.141,7.141,7.145,18.715,0,25.855L177.5,360.355C173.93,363.93,169.25,365.715,164.57,365.715
		z"/>
</g>
</svg>
